<?xml version='1.0' encoding='iso-8859-1'?>
<!-- Uploaded to: SVG Repo, www.svgrepo.com, Generator: SVG Repo Mixer Tools -->
<svg fill="#000000" height="800px" width="800px" version="1.1" xmlns="http://www.w3.org/2000/svg" viewBox="0 0 511 511" xmlns:xlink="http://www.w3.org/1999/xlink" enable-background="new 0 0 511 511">
  <g>
    <path d="m455.5,104h-400c-4.142,0-7.5,3.358-7.5,7.5v256c0,4.142 3.358,7.5 7.5,7.5h400c4.142,0 7.5-3.358 7.5-7.5v-256c0-4.142-3.358-7.5-7.5-7.5zm-7.5,15v49h-385v-49h385zm-385,241v-177h385v177h-385z"/>
    <path d="M503.5,392H495V108.265C495,88.269,478.686,72,458.633,72H52.351C32.307,72,16,88.269,16,108.265V392H7.5   c-4.142,0-7.5,3.358-7.5,7.5v11C0,426.215,12.785,439,28.5,439h454c15.715,0,28.5-12.785,28.5-28.5v-11   C511,395.358,507.642,392,503.5,392z M31,108.265C31,96.54,40.578,87,52.351,87h406.282C470.415,87,480,96.54,480,108.265V392H31   V108.265z M496,410.5c0,7.444-6.056,13.5-13.5,13.5h-454c-7.444,0-13.5-6.056-13.5-13.5V407h209.025   c-0.011,0.166-0.025,0.331-0.025,0.5c0,4.142,3.358,7.5,7.5,7.5h48c4.142,0,7.5-3.358,7.5-7.5c0-0.169-0.014-0.334-0.025-0.5H496   V410.5z"/>
    <path d="m87.5,151h40c4.142,0 7.5-3.358 7.5-7.5s-3.358-7.5-7.5-7.5h-40c-4.142,0-7.5,3.358-7.5,7.5s3.358,7.5 7.5,7.5z"/>
    <path d="m279.5,151h8c4.142,0 7.5-3.358 7.5-7.5s-3.358-7.5-7.5-7.5h-8c-4.142,0-7.5,3.358-7.5,7.5s3.358,7.5 7.5,7.5z"/>
    <path d="m319.5,151h8c4.142,0 7.5-3.358 7.5-7.5s-3.358-7.5-7.5-7.5h-8c-4.142,0-7.5,3.358-7.5,7.5s3.358,7.5 7.5,7.5z"/>
    <path d="m359.5,151h8c4.142,0 7.5-3.358 7.5-7.5s-3.358-7.5-7.5-7.5h-8c-4.142,0-7.5,3.358-7.5,7.5s3.358,7.5 7.5,7.5z"/>
    <path d="m399.5,151h8c4.142,0 7.5-3.358 7.5-7.5s-3.358-7.5-7.5-7.5h-8c-4.142,0-7.5,3.358-7.5,7.5s3.358,7.5 7.5,7.5z"/>
    <path d="m231.5,200h-144c-4.142,0-7.5,3.358-7.5,7.5v128c0,4.142 3.358,7.5 7.5,7.5h144c4.142,0 7.5-3.358 7.5-7.5v-128c0-4.142-3.358-7.5-7.5-7.5zm-7.5,128h-129v-113h129v113z"/>
    <path d="m263.5,215h152c4.142,0 7.5-3.358 7.5-7.5s-3.358-7.5-7.5-7.5h-152c-4.142,0-7.5,3.358-7.5,7.5s3.358,7.5 7.5,7.5z"/>
    <path d="m327.5,264h-64c-4.142,0-7.5,3.358-7.5,7.5s3.358,7.5 7.5,7.5h64c4.142,0 7.5-3.358 7.5-7.5s-3.358-7.5-7.5-7.5z"/>
    <path d="m327.5,296h-64c-4.142,0-7.5,3.358-7.5,7.5s3.358,7.5 7.5,7.5h64c4.142,0 7.5-3.358 7.5-7.5s-3.358-7.5-7.5-7.5z"/>
    <path d="m327.5,328h-64c-4.142,0-7.5,3.358-7.5,7.5s3.358,7.5 7.5,7.5h64c4.142,0 7.5-3.358 7.5-7.5s-3.358-7.5-7.5-7.5z"/>
    <path d="m423.5,264h-64c-4.142,0-7.5,3.358-7.5,7.5s3.358,7.5 7.5,7.5h64c4.142,0 7.5-3.358 7.5-7.5s-3.358-7.5-7.5-7.5z"/>
    <path d="m423.5,296h-64c-4.142,0-7.5,3.358-7.5,7.5s3.358,7.5 7.5,7.5h64c4.142,0 7.5-3.358 7.5-7.5s-3.358-7.5-7.5-7.5z"/>
    <path d="m423.5,328h-64c-4.142,0-7.5,3.358-7.5,7.5s3.358,7.5 7.5,7.5h64c4.142,0 7.5-3.358 7.5-7.5s-3.358-7.5-7.5-7.5z"/>
    <path d="m263.5,247h104c4.142,0 7.5-3.358 7.5-7.5s-3.358-7.5-7.5-7.5h-104c-4.142,0-7.5,3.358-7.5,7.5s3.358,7.5 7.5,7.5z"/>
  </g>
</svg>